<svg width="30" height="29" viewBox="0 0 30 29" fill="none" xmlns="http://www.w3.org/2000/svg">
<path d="M29.0568 23.5613C29.0568 23.6746 29.0096 23.7784 28.9152 23.8728C28.8208 23.9672 28.717 24.0144 28.6037 24.0144H23.5633C23.4878 24.9205 23.1008 25.6756 22.4024 26.2797C21.7039 26.8838 20.9016 27.1859 19.9954 27.1859C19.0893 27.1859 18.287 26.8838 17.5885 26.2797C16.8901 25.6756 16.4842 24.9205 16.3709 24.0144H0.513613C0.400346 24.0144 0.296519 23.9672 0.20213 23.8728C0.107741 23.7784 0.0605469 23.6746 0.0605469 23.5613C0.0605469 23.4481 0.107741 23.3442 0.20213 23.2498C0.296519 23.1555 0.400346 23.1083 0.513613 23.1083H16.3709C16.4842 22.2021 16.8901 21.447 17.5885 20.8429C18.287 20.2388 19.0893 19.9368 19.9954 19.9368C20.9016 19.9368 21.7039 20.2388 22.4024 20.8429C23.1008 21.447 23.4878 22.2021 23.5633 23.1083H28.6037C28.717 23.1083 28.8208 23.1555 28.9152 23.2498C29.0096 23.3442 29.0568 23.4481 29.0568 23.5613ZM19.9954 26.2797C20.7506 26.2797 21.3924 26.0154 21.921 25.4869C22.4496 24.9583 22.7138 24.3164 22.7138 23.5613C22.7138 22.8062 22.4496 22.1644 21.921 21.6358C21.3924 21.1072 20.7506 20.8429 19.9954 20.8429C19.2403 20.8429 18.5985 21.1072 18.0699 21.6358C17.5413 22.1644 17.2771 22.8062 17.2771 23.5613C17.2771 24.3164 17.5413 24.9583 18.0699 25.4869C18.5985 26.0154 19.2403 26.2797 19.9954 26.2797ZM12.6898 14.0469H28.6037C28.717 14.0469 28.8208 14.0941 28.9152 14.1885C29.0096 14.2829 29.0568 14.3867 29.0568 14.5C29.0568 14.6133 29.0096 14.7171 28.9152 14.8115C28.8208 14.9059 28.717 14.9531 28.6037 14.9531H12.6898C12.6142 15.8592 12.2273 16.6143 11.5288 17.2184C10.8303 17.8225 10.028 18.1245 9.12186 18.1245C8.21573 18.1245 7.41343 17.8225 6.71495 17.2184C6.01648 16.6143 5.6106 15.8592 5.49734 14.9531H0.513613C0.400346 14.9531 0.296519 14.9059 0.20213 14.8115C0.107741 14.7171 0.0605469 14.6133 0.0605469 14.5C0.0605469 14.3867 0.107741 14.2829 0.20213 14.1885C0.296519 14.0941 0.400346 14.0469 0.513613 14.0469H5.49734C5.6106 13.1408 6.01648 12.3857 6.71495 11.7816C7.41343 11.1775 8.21573 10.8755 9.12186 10.8755C10.028 10.8755 10.8303 11.1775 11.5288 11.7816C12.2273 12.3857 12.6142 13.1408 12.6898 14.0469ZM9.12186 17.2184C9.87697 17.2184 10.5188 16.9541 11.0474 16.4255C11.576 15.897 11.8403 15.2551 11.8403 14.5C11.8403 13.7449 11.576 13.1031 11.0474 12.5745C10.5188 12.0459 9.87697 11.7816 9.12186 11.7816C8.36675 11.7816 7.72491 12.0459 7.19633 12.5745C6.66776 13.1031 6.40347 13.7449 6.40347 14.5C6.40347 15.2551 6.66776 15.897 7.19633 16.4255C7.72491 16.9541 8.36675 17.2184 9.12186 17.2184ZM14.5587 4.98562C14.6719 4.07949 15.0778 3.32438 15.7763 2.72029C16.4747 2.11621 17.2771 1.81416 18.1832 1.81416C19.0893 1.81416 19.8916 2.11621 20.5901 2.72029C21.2886 3.32438 21.6756 4.07949 21.7511 4.98562H28.6037C28.717 4.98562 28.8208 5.03282 28.9152 5.12721C29.0096 5.2216 29.0568 5.32542 29.0568 5.43869C29.0568 5.55196 29.0096 5.65578 28.9152 5.75017C28.8208 5.84456 28.717 5.89176 28.6037 5.89176H21.7511C21.6756 6.79789 21.2886 7.553 20.5901 8.15709C19.8916 8.76117 19.0893 9.06322 18.1832 9.06322C17.2771 9.06322 16.4747 8.76117 15.7763 8.15709C15.0778 7.553 14.6719 6.79789 14.5587 5.89176H0.513613C0.400346 5.89176 0.296519 5.84456 0.20213 5.75017C0.107741 5.65578 0.0605469 5.55196 0.0605469 5.43869C0.0605469 5.32542 0.107741 5.2216 0.20213 5.12721C0.296519 5.03282 0.400346 4.98562 0.513613 4.98562H14.5587ZM18.1832 2.72029C17.4281 2.72029 16.7862 2.98458 16.2577 3.51316C15.7291 4.04174 15.4648 4.68358 15.4648 5.43869C15.4648 6.1938 15.7291 6.83564 16.2577 7.36422C16.7862 7.8928 17.4281 8.15709 18.1832 8.15709C18.9383 8.15709 19.5801 7.8928 20.1087 7.36422C20.6373 6.83564 20.9016 6.1938 20.9016 5.43869C20.9016 4.68358 20.6373 4.04174 20.1087 3.51316C19.5801 2.98458 18.9383 2.72029 18.1832 2.72029Z" fill="black"/>
</svg>
