<svg width="40" height="40" viewBox="0 0 40 40" fill="none" xmlns="http://www.w3.org/2000/svg">
<rect width="40" height="40" rx="4" fill="white"/>
<path d="M22.6006 20.2006C22.6006 20.8371 22.3478 21.4476 21.8977 21.8977C21.4476 22.3478 20.8371 22.6006 20.2006 22.6006C19.5641 22.6006 18.9537 22.3478 18.5036 21.8977C18.0535 21.4476 17.8006 20.8371 17.8006 20.2006C17.8006 19.5641 18.0535 18.9537 18.5036 18.5036C18.9537 18.0535 19.5641 17.8006 20.2006 17.8006C20.8371 17.8006 21.4476 18.0535 21.8977 18.5036C22.3478 18.9537 22.6006 19.5641 22.6006 20.2006ZM23.9006 20.2006C23.9006 19.716 23.8052 19.2362 23.6197 18.7885C23.4343 18.3408 23.1625 17.934 22.8198 17.5914C22.4772 17.2488 22.0704 16.9769 21.6227 16.7915C21.175 16.6061 20.6952 16.5106 20.2106 16.5106C19.726 16.5106 19.2462 16.6061 18.7985 16.7915C18.3508 16.9769 17.944 17.2488 17.6014 17.5914C17.2588 17.934 16.9869 18.3408 16.8015 18.7885C16.6161 19.2362 16.5206 19.716 16.5206 20.2006C16.5206 21.1793 16.9094 22.1178 17.6014 22.8098C18.2934 23.5019 19.232 23.8906 20.2106 23.8906C21.1893 23.8906 22.1278 23.5019 22.8198 22.8098C23.5119 22.1178 23.9006 21.1793 23.9006 20.2006ZM24.9006 16.3606C24.9006 16.1343 24.8114 15.917 24.6523 15.756C24.4932 15.595 24.277 15.5033 24.0506 15.5006C23.9368 15.4993 23.8239 15.5206 23.7184 15.5632C23.6129 15.6058 23.517 15.669 23.436 15.749C23.3551 15.8289 23.2909 15.9242 23.247 16.0292C23.2032 16.1342 23.1806 16.2468 23.1806 16.3606C23.1806 16.8406 23.5706 17.2206 24.0506 17.2206C24.5206 17.2206 24.9106 16.8406 24.9106 16.3606H24.9006ZM20.2006 14.3006C21.2506 14.3006 23.5006 14.2106 24.4506 14.5906C24.7806 14.7206 25.0206 14.8806 25.2706 15.1306C25.5306 15.3806 25.6906 15.6306 25.8206 15.9606C26.1906 16.9006 26.1106 19.1606 26.1106 20.2006C26.1106 21.2506 26.1906 23.5006 25.8106 24.4506C25.6906 24.7806 25.5306 25.0206 25.2706 25.2806C25.0206 25.5306 24.7706 25.6806 24.4506 25.8206C23.5006 26.1906 21.2506 26.1106 20.2006 26.1106C19.1506 26.1106 16.9006 26.1906 15.9506 25.8106C15.6425 25.6947 15.3629 25.5139 15.1306 25.2806C14.8925 25.0464 14.7082 24.7632 14.5906 24.4506C14.2106 23.5006 14.2906 21.2506 14.2906 20.2006C14.2906 19.1506 14.2106 16.9006 14.5906 15.9606C14.7206 15.6306 14.8806 15.3806 15.1306 15.1306C15.3806 14.8806 15.6306 14.7206 15.9506 14.5906C16.9006 14.2106 19.1506 14.2906 20.2006 14.2906V14.3006ZM27.4006 20.2006C27.4006 19.2106 27.4106 18.2306 27.3506 17.2306C27.374 16.111 26.9575 15.0268 26.1906 14.2106C25.3745 13.4437 24.2903 13.0273 23.1706 13.0506C22.1806 12.9906 21.2006 13.0006 20.2006 13.0006C19.2006 13.0006 18.2206 13.0006 17.2306 13.0506C16.111 13.0273 15.0268 13.4437 14.2106 14.2106C13.4437 15.0268 13.0273 16.111 13.0506 17.2306C12.9906 18.2306 13.0006 19.2106 13.0006 20.2006C13.0006 21.2006 13.0006 22.1806 13.0506 23.1806C13.0299 24.2968 13.4462 25.377 14.2106 26.1906C15.0252 26.9612 16.1096 27.3813 17.2306 27.3606C18.2306 27.4106 19.2106 27.4006 20.2006 27.4006C21.2006 27.4006 22.1806 27.4106 23.1706 27.3606C24.2917 27.3813 25.3761 26.9612 26.1906 26.1906C26.9551 25.377 27.3713 24.2968 27.3506 23.1806C27.4106 22.1806 27.4006 21.2006 27.4006 20.2006Z" fill="#1E1E1E"/>
</svg>
