<svg width="20" height="19" viewBox="0 0 20 19" fill="none" xmlns="http://www.w3.org/2000/svg">
<path d="M5.28549 11.1842L2.92883 13.5417L5.87466 16.4875L17.0705 5.29165L14.1247 2.34582L12.3563 4.11332L13.5355 5.29165L12.3563 6.46998L11.178 5.29165L9.41049 7.05999L11.178 8.82665L9.99966 10.0067L8.23216 8.23915L6.46383 10.0067L7.64299 11.185L6.46383 12.3642L5.28549 11.185V11.1842ZM14.7138 0.577485L18.8388 4.70248C18.9951 4.85876 19.0828 5.07068 19.0828 5.29165C19.0828 5.51262 18.9951 5.72455 18.8388 5.88082L6.46383 18.2558C6.30755 18.412 6.09563 18.4998 5.87466 18.4998C5.65369 18.4998 5.44177 18.412 5.28549 18.2558L1.16049 14.1308C1.00427 13.9745 0.916504 13.7626 0.916504 13.5417C0.916504 13.3207 1.00427 13.1088 1.16049 12.9525L13.5355 0.577485C13.6918 0.421259 13.9037 0.333496 14.1247 0.333496C14.3456 0.333496 14.5576 0.421259 14.7138 0.577485Z" fill="#1E1E1E"/>
</svg>
